<?xml version="1.0" standalone="no"?>
<!DOCTYPE svg PUBLIC "-//W3C//DTD SVG 20010904//EN"
 "http://www.w3.org/TR/2001/REC-SVG-20010904/DTD/svg10.dtd">
<svg version="1.0" xmlns="http://www.w3.org/2000/svg"
 width="500.000000pt" height="500.000000pt" viewBox="0 0 500.000000 500.000000"
 preserveAspectRatio="xMidYMid meet">

<g transform="translate(0.000000,500.000000) scale(0.100000,-0.100000)"
fill="#007bff" stroke="none">
<path d="M1330 3665 l-1165 -1165 150 -150 150 -150 2035 0 2035 0 150 150
150 150 -1165 1165 c-641 641 -1167 1165 -1170 1165 -3 0 -529 -524 -1170
-1165z"/>
<path d="M780 1885 l185 -185 1535 0 1535 0 185 185 185 185 -1905 0 -1905 0
185 -185z"/>
<path d="M1280 1385 l185 -185 1035 0 1035 0 185 185 185 185 -1405 0 -1405 0
185 -185z"/>
<path d="M1790 885 l185 -185 530 0 530 0 185 185 185 185 -900 0 -900 0 185
-185z"/>
<path d="M2305 370 l200 -200 197 197 c109 109 198 199 198 200 0 2 -179 3
-397 3 l-398 0 200 -200z"/>
</g>
</svg>
